<?xml version="1.0" encoding="utf-8"?>
<!-- Generator: Adobe Illustrator 16.0.0, SVG Export Plug-In . SVG Version: 6.00 Build 0)  -->
<!DOCTYPE svg PUBLIC "-//W3C//DTD SVG 1.1//EN" "http://www.w3.org/Graphics/SVG/1.1/DTD/svg11.dtd">
<svg version="1.1" id="Layer_1" xmlns="http://www.w3.org/2000/svg" xmlns:xlink="http://www.w3.org/1999/xlink" x="0px" y="0px"
	 width="285.594px" height="285.583px" viewBox="0 0 285.594 285.583" enable-background="new 0 0 285.594 285.583"
	 xml:space="preserve">
<g opacity="0.3">
	<path fill="#64C5E9" d="M266.968,137.375c0.026,1.04,0.04,2.083,0.04,3.129c0,2.231-0.063,4.448-0.182,6.65h18.784v-9.779H266.968z
		"/>
	<path fill="#64C5E9" d="M137.914,262.485v23.129h9.778v-22.966c-0.952,0.022-1.906,0.036-2.864,0.036
		C142.507,262.684,140.203,262.614,137.914,262.485z"/>
	<path fill="#64C5E9" d="M147.692,18.308V0h-9.778v18.469C74.655,21.991,24.246,73.63,22.669,137.375H0v9.779h22.818
		c3.133,57.943,46.633,105.143,102.882,113.979c6.227,0.98,12.608,1.499,19.112,1.499c6.818,0,13.497-0.582,20.01-1.658
		c57.954-9.549,102.17-59.857,102.17-120.521C266.992,73.948,213.839,19.838,147.692,18.308z M127.556,150.5
		c-8.659,0-16.082-5.186-19.424-12.59c-2.655,2.789-6.361,4.542-10.473,4.542c-1.911,0-3.719-0.401-5.384-1.063l-0.019,0.009
		c0,0,2.763,2.4,4.32,9.101c0.9,3.854,3.466,6.736,6.028,6.656c1.038,13.16,2.388,32.887-28.968,31.365
		c0,0,8.22,8.699,19.094,11.765c0,0-9.025,13.759,7.806,13.759c0,0,0.419,5.338-0.825,9.227c-1.228,3.91-1.228,20.526,13.749,10.057
		c2.986-2.086,5.978-4.691,8.909-7.579c-0.057,4.59,0.064,9.091,0.373,13.37c0.35,5,0.916,9.709,1.568,14.043
		c-53.49-9.67-94.074-56.432-94.074-112.708c0-58.012,43.13-105.932,99.079-113.499C101.412,35.608,81.31,59.832,81.31,88.383
		c0,6.701,1.232,13.134,3.301,19.202c-3.777,4.421-0.045,13.551-0.045,13.551l0.08-0.044c2.392-4.852,7.29-8.219,13.014-8.219
		c4.667,0,8.778,2.276,11.443,5.742c3.68-6.424,10.52-10.797,18.453-10.797c11.781,0,21.341,9.543,21.341,21.347
		C148.896,140.947,139.337,150.5,127.556,150.5z M160.671,253.909c-1.989-3.617-3.774-7.186-5.366-10.689
		c-1.595-3.54-2.993-6.997-4.231-10.396c-5.463-14.945-7.633-28.322-8.346-38.744c2.164-5.918,3.766-12.281,4.593-19.013
		c1.286-10.536,3.805-17.409,6.37-21.923c4.018-7.01,8.197-8.264,8.197-8.264s15.069,3.794,26.201-0.886
		c3.781-2.085,7.312-4.466,10.593-7.133c14.583-11.889,23.824-29.158,23.824-48.478c0-20.103-9.957-38.062-25.591-49.955
		c37.076,18.972,62.469,57.527,62.469,102.026C259.384,198.348,216.436,246.182,160.671,253.909z"/>
</g>
</svg>
